<svg width="1629" height="1581" viewBox="0 0 1629 1581" fill="none" xmlns="http://www.w3.org/2000/svg">
    <g opacity="0.2">
        <path stroke-dasharray="2000" stroke-dashoffset="2000" opacity="0.0526316" d="M126.563 1275.69C160.934 1321.41 270.788 1397.93 435.234 1338.19C640.792 1263.51 720.293 1065.56 903.756 962.918C1039.17 887.161 1403.02 773.446 1612.24 899.102" stroke="#E1F8FF" stroke-width="1.45842"><animate begin="0s"    fill="freeze" attributeName="stroke-dashoffset" values="2000;0" dur="2s" /></path>
        <path stroke-dasharray="2000" stroke-dashoffset="2000" opacity="0.105263" d="M92.6615 1179.82C122.064 1228.89 223.318 1316.47 393.108 1274.25C605.346 1221.46 705.103 1032.91 898.29 950.004C1040.88 888.816 1414.62 813.757 1609.56 960.595" stroke="#E1F8FF" stroke-width="1.45842">  <animate begin="0.10s" fill="freeze" attributeName="stroke-dashoffset" values="2000;0" dur="2s" /> </path>
        <path stroke-dasharray="2000" stroke-dashoffset="2000" opacity="0.157895" d="M67.0492 1082.66C91.1619 1134.54 182.706 1232.23 355.979 1207.98C572.572 1177.67 691.492 1000.57 892.286 938.318C1040.49 892.37 1420.03 856.789 1598.55 1023.2" stroke="#E1F8FF" stroke-width="1.45842">   <animate begin="0.20s" fill="freeze" attributeName="stroke-dashoffset" values="2000;0" dur="2s" /> </path>
        <path stroke-dasharray="2000" stroke-dashoffset="2000" opacity="0.210526" d="M49.8167 985.086C68.3748 1039.2 149.206 1145.92 324.065 1139.92C542.639 1132.41 679.42 968.716 885.621 927.792C1037.81 897.587 1419 901.873 1579.15 1086.03" stroke="#E1F8FF" stroke-width="1.45842">      <animate begin="0.30s" fill="freeze" attributeName="stroke-dashoffset" values="2000;0" dur="2s" /> </path>
        <path stroke-dasharray="2000" stroke-dashoffset="2000" opacity="0.263158" d="M40.962 887.968C53.7624 943.723 122.995 1058.31 297.524 1070.62C515.685 1086 668.827 937.499 878.177 918.353C1032.69 904.222 1411.34 948.329 1551.36 1148.22" stroke="#E1F8FF" stroke-width="1.45842">     <animate begin="0.40s" fill="freeze" attributeName="stroke-dashoffset" values="2000;0" dur="2s" /> </path>
        <path stroke-dasharray="2000" stroke-dashoffset="2000" opacity="0.315789" d="M40.3922 792.182C47.2945 848.969 104.171 970.164 276.457 1000.65C491.814 1038.75 659.64 907.072 869.845 909.914C1024.99 912.011 1396.95 995.456 1515.31 1208.89" stroke="#E1F8FF" stroke-width="1.45842">  <animate begin="0.50s" fill="freeze" attributeName="stroke-dashoffset" values="2000;0" dur="2s" /> </path>
        <path stroke-dasharray="2000" stroke-dashoffset="2000" opacity="0.368421" d="M47.9203 698.585C48.8489 755.783 92.7451 882.259 260.901 930.585C471.095 990.992 651.767 877.575 860.523 902.373C1014.6 920.676 1375.8 1042.54 1471.21 1267.18" stroke="#E1F8FF" stroke-width="1.45842">   <animate begin="0.6s" fill="freeze" attributeName="stroke-dashoffset" values="2000;0" dur="2s" /> </path>
        <path stroke-dasharray="2000" stroke-dashoffset="2000" opacity="0.421053" d="M63.2756 608.014C58.2204 664.995 88.6558 795.367 250.839 861.006C453.568 943.053 645.105 849.142 850.125 895.626C1001.44 929.934 1347.93 1088.89 1419.33 1322.27" stroke="#E1F8FF" stroke-width="1.45842"> <animate begin="0.7s" fill="freeze" attributeName="stroke-dashoffset" values="2000;0" dur="2s" /> </path>
        <path stroke-dasharray="2000" stroke-dashoffset="2000" opacity="0.473684" d="M86.0976 521.27C75.114 577.411 91.755 710.25 246.189 792.481C439.231 895.271 639.535 821.895 838.573 889.554C985.478 939.492 1313.45 1133.8 1360.06 1373.36" stroke="#E1F8FF" stroke-width="1.45842">      <animate begin="0.8s" fill="freeze" attributeName="stroke-dashoffset" values="2000;0" dur="2s" /> </path>
        <path stroke-dasharray="2000" stroke-dashoffset="2000" opacity="0.526316" d="M115.945 439.112C99.1531 493.797 101.818 627.648 246.81 725.571C428.05 847.976 634.926 795.94 825.802 884.033C966.682 949.053 1272.55 1176.57 1293.86 1419.7" stroke="#E1F8FF" stroke-width="1.45842">     <animate begin="0.9s" fill="freeze" attributeName="stroke-dashoffset" values="2000;0" dur="2s" /> </path>
        <path stroke-dasharray="2000" stroke-dashoffset="2000" opacity="0.578947" d="M152.302 362.247C129.886 414.877 118.545 548.273 252.507 660.816C419.959 801.495 631.142 771.368 811.763 878.931C945.075 958.321 1225.48 1216.57 1221.27 1460.59" stroke="#E1F8FF" stroke-width="1.45842"> <animate begin="1s" fill="freeze" attributeName="stroke-dashoffset" values="2000;0" dur="2s" /> </path>
        <path stroke-dasharray="2000" stroke-dashoffset="2000" opacity="0.631579" d="M194.578 291.331C166.783 341.33 141.56 472.81 263.024 598.739C414.854 756.151 628.029 748.264 796.418 874.118C920.701 967.008 1172.58 1253.15 1142.88 1495.39" stroke="#E1F8FF" stroke-width="1.45842">    <animate begin="1.1s" fill="freeze" attributeName="stroke-dashoffset" values="2000;0" dur="2s" /> </path>
        <path stroke-dasharray="2000" stroke-dashoffset="2000" opacity="0.684211" d="M242.118 226.948C209.249 273.767 170.421 401.89 278.057 539.826C412.601 712.246 625.432 726.685 779.743 869.451C893.636 974.823 1114.22 1285.73 1059.37 1523.54" stroke="#E1F8FF" stroke-width="1.45842">  <animate begin="1.2s" fill="freeze" attributeName="stroke-dashoffset" values="2000;0" dur="2s" /> </path>
        <path stroke-dasharray="2000" stroke-dashoffset="2000" opacity="0.736842" d="M294.212 169.61C256.629 212.737 204.621 336.1 297.249 484.531C413.033 670.07 623.19 706.677 761.732 864.791C863.987 981.491 1050.87 1313.75 971.454 1544.52" stroke="#E1F8FF" stroke-width="1.45842">      <animate begin="1.3s" fill="freeze" attributeName="stroke-dashoffset" values="2000;0" dur="2s" /> </path>
        <path stroke-dasharray="2000" stroke-dashoffset="2000" opacity="0.789474" d="M350.099 119.759C308.214 158.722 243.596 275.973 320.201 433.273C415.957 629.899 621.136 688.272 742.392 860.001C831.888 986.75 983.013 1336.72 879.914 1557.93" stroke="#E1F8FF" stroke-width="1.45842">  <animate begin="1.4s" fill="freeze" attributeName="stroke-dashoffset" values="2000;0" dur="2s" /> </path>
        <path stroke-dasharray="2000" stroke-dashoffset="2000" opacity="0.842105" d="M408.973 77.7469C363.245 112.118 286.725 221.972 346.468 386.418C421.147 591.975 619.099 671.476 721.741 854.94C797.498 990.349 911.213 1354.2 785.556 1563.42" stroke="#E1F8FF" stroke-width="1.45842">   <animate begin="1.5s" fill="freeze" attributeName="stroke-dashoffset" values="2000;0" dur="2s" /> </path>
        <path stroke-dasharray="2000" stroke-dashoffset="2000" opacity="0.894737" d="M470 43.845C420.93 73.248 333.346 174.501 375.572 344.291C428.355 556.529 616.914 656.286 699.816 849.473C761.003 992.06 836.063 1365.8 689.225 1560.74" stroke="#E1F8FF" stroke-width="1.45842">          <animate begin="1.6s" fill="freeze" attributeName="stroke-dashoffset" values="2000;0" dur="2s" /> </path>
        <path stroke-dasharray="2000" stroke-dashoffset="2000" opacity="0.947368" d="M532.32 18.2326C480.445 42.3453 382.757 133.889 407.005 307.163C437.313 523.755 614.411 642.675 676.666 843.47C722.614 991.671 758.195 1371.21 591.785 1549.74" stroke="#E1F8FF" stroke-width="1.45842">   <animate begin="1.7s" fill="freeze" attributeName="stroke-dashoffset" values="2000;0" dur="2s" /> </path>
        <path stroke-dasharray="2000" stroke-dashoffset="2000" d="M595.061 1C540.95 19.5582 434.228 100.389 440.23 275.248C447.733 493.822 611.431 630.603 652.355 836.805C682.56 988.997 678.274 1370.18 494.114 1530.33" stroke="#E1F8FF" stroke-width="1.45842">                             <animate begin="1.8s" fill="freeze" attributeName="stroke-dashoffset" values="2000;0" dur="2s" /> </path>
    </g>
</svg>
