<svg width="29" height="22" viewBox="0 0 29 22" fill="none" xmlns="http://www.w3.org/2000/svg">
<path d="M24.3381 1.81654C22.5057 0.975741 20.5407 0.356279 18.4861 0.0014883C18.4487 -0.00535906 18.4113 0.0117529 18.3921 0.0459775C18.1393 0.495454 17.8594 1.08183 17.6634 1.54272C15.4536 1.2119 13.2552 1.2119 11.0907 1.54272C10.8946 1.07159 10.6045 0.495454 10.3507 0.0459775C10.3314 0.0128948 10.294 -0.00421715 10.2566 0.0014883C8.20322 0.355146 6.23822 0.974607 4.40466 1.81654C4.38879 1.82338 4.37518 1.8348 4.36615 1.84962C0.638959 7.41797 -0.382076 12.8495 0.11881 18.2136C0.121076 18.2398 0.135808 18.2649 0.156206 18.2809C2.6153 20.0868 4.99736 21.1831 7.33518 21.9098C7.37259 21.9213 7.41224 21.9076 7.43605 21.8767C7.98906 21.1216 8.48202 20.3253 8.90468 19.4879C8.92963 19.4388 8.90582 19.3806 8.85484 19.3612C8.07292 19.0646 7.32838 18.703 6.61218 18.2923C6.55553 18.2592 6.55099 18.1782 6.60311 18.1394C6.75382 18.0265 6.90458 17.909 7.04849 17.7903C7.07452 17.7687 7.11081 17.7641 7.14142 17.7778C11.8465 19.926 16.9404 19.926 21.59 17.7778C21.6206 17.7629 21.6569 17.7675 21.6841 17.7892C21.828 17.9078 21.9787 18.0265 22.1306 18.1394C22.1827 18.1782 22.1793 18.2592 22.1226 18.2923C21.4064 18.711 20.6619 19.0646 19.8788 19.3601C19.8279 19.3795 19.8052 19.4388 19.8301 19.4879C20.2619 20.3241 20.7548 21.1204 21.2976 21.8756C21.3203 21.9076 21.3611 21.9213 21.3985 21.9098C23.7477 21.1831 26.1297 20.0868 28.5888 18.2809C28.6103 18.2649 28.6239 18.241 28.6262 18.2147C29.2257 12.0132 27.6221 6.62625 24.3755 1.85075C24.3675 1.8348 24.354 1.82338 24.3381 1.81654ZM9.60732 14.9474C8.19075 14.9474 7.02354 13.6469 7.02354 12.0497C7.02354 10.4526 8.16812 9.15204 9.60732 9.15204C11.0578 9.15204 12.2137 10.464 12.1911 12.0497C12.1911 13.6469 11.0465 14.9474 9.60732 14.9474ZM19.1604 14.9474C17.7439 14.9474 16.5766 13.6469 16.5766 12.0497C16.5766 10.4526 17.7212 9.15204 19.1604 9.15204C20.6109 9.15204 21.7668 10.464 21.7442 12.0497C21.7442 13.6469 20.6109 14.9474 19.1604 14.9474Z" fill="white"/>
</svg>
