<svg width="24" height="23" viewBox="0 0 24 23" fill="none" xmlns="http://www.w3.org/2000/svg">
<path d="M0.0875591 22.35H4.76885V6.74679H0.0875591V22.35ZM18.3251 6.20632C16.0532 6.20632 14.0204 7.03599 12.5783 8.86732V6.69547H7.87988V22.3501H12.5783V13.8845C12.5783 12.0954 14.2174 10.3501 16.2705 10.3501C18.3236 10.3501 18.8299 12.0954 18.8299 13.8407V22.3486H23.5112V13.4923C23.511 7.34064 20.5986 6.20632 18.3251 6.20632ZM2.40632 5.1875C3.70009 5.1875 4.75014 4.13745 4.75014 2.84368C4.75014 1.54991 3.70009 0.500031 2.40632 0.500031C1.11255 0.500031 0.0625 1.55008 0.0625 2.84385C0.0625 4.13762 1.11255 5.1875 2.40632 5.1875Z" fill="white"/>
</svg>
