<svg width="396" height="165" viewBox="0 0 396 165" fill="none" xmlns="http://www.w3.org/2000/svg">
<g clip-path="url(#clip0_0_19)">
<path d="M0 92.0406H17.6346V151.903H52.2917V169H0V92.0406Z" fill="white"/>
<path d="M60.8032 92.0406H115.535V109.129H78.4551V121.344H112.508V138.433H78.4551V151.903H116.768V169H60.8204L60.8032 92.0406Z" fill="white"/>
<path d="M192.757 92.0406L166.62 168.957H148.373L122.227 92.0406H140.474L157.496 145.15L174.527 92.0406H192.757Z" fill="white"/>
<path d="M268.763 92.0406H286.398V151.903H321.055V169H268.763V92.0406Z" fill="white"/>
<path d="M219.946 109.129H256.889V92.0403H200.941V109.129H218.972H219.946Z" fill="#00C7CF"/>
<path d="M215.979 138.432H256.889V121.335H215.462H194.016V138.432H215.462H215.979Z" fill="#00C7CF"/>
<path d="M206.77 151.859H206.209H182.883V168.948H256.889V151.859H206.77Z" fill="#00C7CF"/>
<path d="M219.946 21.1145H256.889V4.02588H200.941V21.1145H218.972H219.946Z" fill="white"/>
<path d="M220.49 50.418H256.889V33.3294H220.033V33.3208H200.941V50.418H220.033H220.49Z" fill="white"/>
<path d="M219.006 63.8446H218.575H200.941V80.9419H256.889V63.8446H219.006Z" fill="white"/>
<path d="M187.445 4.026V80.9162H171.638L140.594 35.7448V80.9162H122.986V4H138.801L169.845 49.1716V4L187.445 4.026Z" fill="white"/>
<path d="M283.517 4.02588L298.108 29.053L312.707 4.02588H332.187L309.085 41.8736L333.403 80.9421H313.949L298.134 54.6945L282.301 80.9161H262.847L287.165 41.8479L264.063 4.02588H283.517Z" fill="white"/>
<path d="M374.123 80.9162H356.488V21.0973H334.593V4H396V21.0973H374.114L374.123 80.9162Z" fill="white"/>
</g>
<defs>
<clipPath id="clip0_0_19">
<rect width="396" height="165" fill="white"/>
</clipPath>
</defs>
</svg>
