<svg width="151" height="22" viewBox="0 0 151 22" fill="none" xmlns="http://www.w3.org/2000/svg">
<g clip-path="url(#clip0_165_149)">
<path d="M46.6162 10.6225V18.7058H43.3291V10.6225C43.3291 8.81452 41.8416 7.33646 40.0154 7.33646C38.1959 7.33646 36.715 8.81452 36.715 10.6225V18.7058H33.4213V10.6225C33.4213 8.81452 31.9338 7.33646 30.1143 7.33646C28.2881 7.33646 26.8006 8.81452 26.8006 10.6225V18.7058H23.5068V10.6225C23.5068 7.00656 26.4686 4.06357 30.1076 4.06357C32.0068 4.06357 33.7998 4.87519 35.0615 6.2939C36.3166 4.87519 38.1162 4.06357 40.0154 4.06357C43.6545 4.06357 46.6162 7.00656 46.6162 10.6225Z" fill="#00C7CF"/>
<path d="M105.977 4.07022V7.3365H105.777C103.905 7.3365 102.384 8.85416 102.384 10.7084V18.7257H99.0903V10.715C99.0903 7.05279 102.092 4.07022 105.777 4.07022H105.977Z" fill="white"/>
<path d="M69.46 10.6424V18.7257H66.1662V10.6424C66.1662 8.83436 64.6853 7.35629 62.8657 7.35629C61.0398 7.35629 59.5589 8.83436 59.5589 10.6424V18.7257H56.2651V10.6424C56.2651 7.02639 59.2268 4.0834 62.8657 4.0834C66.4983 4.0834 69.46 7.02639 69.46 10.6424Z" fill="white"/>
<path d="M75.4698 7.50738V11.3873C75.4698 13.6506 77.3224 15.485 79.5937 15.485H79.7924V18.7579H79.5937C75.5028 18.7579 72.176 15.4521 72.176 11.3873V0.790009H75.4698V4.23446H79.7924V7.50738H75.4698Z" fill="white"/>
<path d="M53.0841 4.60455H49.7903V18.7322H53.0841V4.60455Z" fill="#00C7CF"/>
<path d="M53.293 1.84375C53.293 2.86301 52.4568 3.694 51.4375 3.694C50.4116 3.694 49.582 2.86301 49.582 1.84375C49.582 0.824498 50.4183 0 51.4375 0C52.463 0 53.293 0.824498 53.293 1.84375Z" fill="#00C7CF"/>
<path d="M134.99 14.4168C134.99 16.9308 132.606 18.8972 129.564 18.8972C126.569 18.8972 124.225 16.9308 124.225 14.4168V14.3178H127.32V14.4168C127.32 15.0898 128.223 15.8025 129.564 15.8025C130.892 15.8025 131.895 15.202 131.895 14.4168C131.895 13.6844 130.879 13.1037 129.478 13.0311C126.43 12.8727 124.132 10.9525 124.132 8.55066C124.132 6.03659 126.516 4.07022 129.564 4.07022C132.572 4.07022 134.837 5.99699 134.837 8.55066V8.64961H131.742V8.55066C131.742 7.8842 130.906 7.16495 129.558 7.16495C128.249 7.16495 127.22 7.772 127.22 8.55066C127.22 9.24352 128.302 9.87037 129.631 9.93637C132.685 10.1013 134.99 12.0281 134.99 14.4168Z" fill="white"/>
<path d="M140.721 7.50738V11.3873C140.721 13.6506 142.573 15.485 144.844 15.485H145.043V18.7579H144.844C140.754 18.7579 137.427 15.4521 137.427 11.3873V0.790009H140.721V4.23446H145.043V7.50738H140.721Z" fill="white"/>
<path d="M96.4272 9.65265C96.3608 9.3953 96.2877 9.16435 96.2084 8.95979C96.1286 8.74864 96.0421 8.53749 95.936 8.32634L95.8959 8.23398H95.8897C95.6636 7.76548 95.3846 7.32998 95.0658 6.92747C94.8867 6.70972 94.7142 6.51172 94.535 6.32697C93.5783 5.35701 92.3832 4.66414 91.0749 4.32761L91.0218 4.29462L91.0084 4.30782C90.7829 4.24843 90.5569 4.20224 90.3447 4.16925C89.5806 4.05707 88.8371 4.05707 88.0668 4.16925C87.8408 4.20884 87.6085 4.25503 87.3696 4.31441L87.3429 4.32101C87.2569 4.34081 87.1637 4.3672 87.0705 4.3936C86.9114 4.43979 86.7518 4.49917 86.5463 4.57176C86.4665 4.60475 86.3867 4.63775 86.3069 4.66414C86.1009 4.74992 85.8888 4.8489 85.6494 4.98085C85.5701 5.02705 85.4903 5.07325 85.3971 5.12605C85.1983 5.24481 85.0454 5.34381 84.9058 5.44276C84.5871 5.66711 84.2885 5.91786 84.0161 6.18182C83.943 6.24782 83.8699 6.32037 83.8101 6.38637C83.7437 6.45237 83.684 6.52492 83.6109 6.59752L83.5846 6.62392V6.63052C83.5511 6.67012 83.5182 6.70972 83.4914 6.74267L83.4049 6.84827V6.85487C83.3519 6.92087 83.2988 6.98022 83.2525 7.05282L83.2257 7.07922V7.08582C83.1861 7.13202 83.1526 7.17818 83.1196 7.23098L83.0666 7.31678C83.0131 7.38933 82.9734 7.46193 82.9204 7.53453L82.907 7.55433C82.8607 7.62688 82.8138 7.69948 82.7675 7.77868L82.7278 7.85123C82.6877 7.91063 82.6547 7.97003 82.6212 8.02943L82.6083 8.05578C82.5816 8.11518 82.5486 8.17458 82.5219 8.23398L82.4822 8.31974C82.4354 8.41874 82.389 8.51769 82.3427 8.62329L82.3293 8.64309C82.2829 8.74864 82.2428 8.84764 82.2031 8.95319L82.1964 8.96639C82.1166 9.17095 82.0502 9.3953 81.9838 9.64605C81.8247 10.2466 81.7449 10.8668 81.7449 11.4937C81.7449 12.1205 81.8247 12.7408 81.9838 13.3413C82.0373 13.559 82.1099 13.79 82.2031 14.0407C82.4487 14.7203 82.8009 15.3538 83.2324 15.9279C83.392 16.1391 83.5645 16.3436 83.7504 16.5416C83.8101 16.6076 83.8766 16.667 83.9363 16.7329C84.6201 17.4126 85.4171 17.9471 86.3069 18.3298C86.5062 18.4156 86.7121 18.4881 86.9047 18.5475C86.9711 18.5739 87.0308 18.5937 87.0906 18.6069L87.1307 18.6201C87.2033 18.6399 87.2764 18.6663 87.3496 18.6795C87.5158 18.7257 87.6883 18.7653 87.8609 18.7983C88.3057 18.8775 88.7573 18.917 89.2089 18.917C89.4545 18.917 89.7135 18.9038 89.9725 18.8775C90.0986 18.8643 90.2186 18.8511 90.3643 18.8313C90.4775 18.8115 90.5836 18.7917 90.7098 18.7719C90.8359 18.7455 90.9554 18.7191 91.0682 18.6861C91.1881 18.6597 91.3076 18.6267 91.4203 18.5937C91.5398 18.5541 91.6526 18.5145 91.772 18.4749C91.9914 18.3958 92.2174 18.3034 92.4362 18.1978C92.549 18.145 92.6556 18.0922 92.755 18.0328C92.9409 17.9273 93.1267 17.8217 93.3064 17.7095L93.3728 17.6633C93.4125 17.6369 93.4522 17.6105 93.4856 17.5841C93.6251 17.4918 93.758 17.3928 93.8774 17.2872L94.0036 17.1816C94.1231 17.0761 94.2492 16.9639 94.3687 16.8517C94.4217 16.8055 94.4748 16.7593 94.5216 16.6999C94.5746 16.6472 94.6344 16.5878 94.6807 16.535C94.7337 16.4822 94.7873 16.4228 94.8336 16.3634C94.9263 16.2578 95.0195 16.1457 95.1127 16.0269L95.1523 16.0005V15.9609C95.192 15.9081 95.2321 15.8553 95.2651 15.8025C95.3119 15.7432 95.3583 15.6772 95.398 15.6178C95.4247 15.5848 95.4443 15.5518 95.4644 15.5188C95.6569 15.2219 95.8361 14.9117 95.9824 14.595H92.1242L92.1175 14.6016L92.0645 14.6412C92.0377 14.6676 91.9981 14.7005 91.9584 14.7335C91.9183 14.7731 91.8786 14.7995 91.8451 14.8259L91.7921 14.8655C91.7787 14.8721 91.772 14.8787 91.7524 14.8919C91.6263 14.9843 91.5068 15.0635 91.4003 15.1295C91.3472 15.1559 91.2942 15.1889 91.2478 15.2153C91.2345 15.2219 91.2211 15.2285 91.201 15.2417C91.1547 15.2681 91.1083 15.2945 91.0553 15.3143L90.9955 15.3407C90.9353 15.367 90.8756 15.3934 90.8292 15.4132C90.8092 15.4198 90.7896 15.4264 90.7829 15.433C90.7494 15.4462 90.7165 15.4594 90.6763 15.4726L90.6434 15.4858C90.6166 15.499 90.597 15.5056 90.5636 15.5122C90.5373 15.5188 90.5038 15.532 90.4575 15.5386C90.424 15.5518 90.3911 15.5584 90.338 15.5782L90.1454 15.631C90.059 15.6508 89.9658 15.6706 89.8731 15.6838L89.8463 15.6904C89.8066 15.697 89.767 15.7036 89.7202 15.7036C89.6939 15.7102 89.6671 15.7102 89.6341 15.7168C89.4282 15.7366 89.2089 15.7432 88.99 15.7366C88.9833 15.7366 88.9699 15.7366 88.9499 15.73C88.8901 15.7234 88.8304 15.7234 88.764 15.7168C88.6976 15.7102 88.6378 15.7036 88.5781 15.697C88.5714 15.6904 88.558 15.6904 88.5384 15.6904L88.3392 15.6508C88.2594 15.6376 88.1796 15.6112 88.0998 15.598L88.0467 15.5848C88.0071 15.5716 87.9674 15.565 87.9273 15.5452C87.8809 15.532 87.8346 15.5122 87.7811 15.499L87.7213 15.4792C87.6616 15.4594 87.5952 15.433 87.5288 15.4C87.4623 15.3736 87.4026 15.3472 87.3429 15.3143C87.2831 15.2879 87.2234 15.2549 87.157 15.2219L87.124 15.2087C87.0772 15.1823 87.0308 15.1559 86.9711 15.1163C86.9247 15.0899 86.8846 15.0635 86.8383 15.0305L86.7919 14.9975C86.7785 14.9843 86.7518 14.9711 86.7322 14.9513C86.6457 14.8919 86.5592 14.8259 86.4732 14.7533C86.4264 14.7137 86.38 14.6742 86.3203 14.628C86.2538 14.5686 86.1941 14.5026 86.1277 14.4366C86.0082 14.3178 85.9084 14.1991 85.8157 14.0737C85.8023 14.0605 85.7889 14.0473 85.7693 14.0143C85.7559 14.0011 85.7426 13.9879 85.7292 13.9681L85.7158 13.9417C85.6895 13.9021 85.6694 13.8757 85.6432 13.8361L85.6164 13.7966C85.5701 13.7174 85.5232 13.6448 85.4769 13.5722C85.3909 13.427 85.3111 13.2621 85.2379 13.0839C85.2313 13.0773 85.2313 13.0707 85.2313 13.0641H96.4803L96.507 12.9123C96.5204 12.8398 96.5338 12.7672 96.5467 12.7012L96.5601 12.6022C96.5801 12.4768 96.6002 12.3449 96.6064 12.2063C96.6332 11.982 96.6466 11.7312 96.6466 11.4805C96.6599 10.8734 96.5801 10.2532 96.4272 9.65265ZM85.0984 10.3191C85.1051 10.2927 85.1118 10.2663 85.1185 10.24L85.1448 10.1674C85.1515 10.141 85.1581 10.1146 85.1715 10.0882C85.2179 9.943 85.2843 9.79785 85.3641 9.63285C85.3775 9.60645 85.3909 9.5801 85.4038 9.5537C85.4104 9.5405 85.4171 9.5273 85.4238 9.5141L85.4635 9.4415C85.4702 9.4283 85.4769 9.4151 85.4836 9.4019L85.5103 9.35575C85.5232 9.33595 85.5366 9.31615 85.55 9.30295L85.5634 9.27655C85.57 9.26335 85.5767 9.25675 85.5767 9.25015C85.603 9.20395 85.6298 9.16435 85.6694 9.11159C85.7096 9.05879 85.7426 9.00599 85.7889 8.94659C85.809 8.90704 85.8357 8.88064 85.8687 8.84104C85.8821 8.82784 85.8888 8.81464 85.9151 8.78824C85.9619 8.73544 86.0015 8.68269 86.0546 8.63649C86.1611 8.51769 86.2539 8.43194 86.3403 8.35274C86.433 8.26694 86.5463 8.17458 86.6524 8.09538C86.7121 8.05578 86.7718 8.00963 86.8316 7.97003C86.9377 7.90403 87.0576 7.83143 87.1837 7.76548L87.21 7.74568C87.2502 7.72588 87.2898 7.69948 87.3362 7.67968L87.3629 7.67308L87.383 7.65328C87.4891 7.60048 87.6019 7.55433 87.7213 7.50813L87.7481 7.49493C87.8145 7.47513 87.8742 7.44873 87.9407 7.42893C87.9736 7.41573 88.0071 7.40913 88.0467 7.40253C88.0936 7.38933 88.1399 7.37618 88.193 7.36298C88.2393 7.34978 88.2861 7.33658 88.3459 7.32998C88.4252 7.31018 88.505 7.29038 88.6049 7.28378C88.6579 7.27718 88.7176 7.27058 88.7707 7.26398C88.8438 7.25738 88.9102 7.25078 88.99 7.24418C89.1229 7.23758 89.2557 7.23758 89.4215 7.24418L89.4483 7.25078C89.5142 7.25738 89.5744 7.25738 89.6408 7.26398C89.82 7.28378 89.9658 7.31018 90.1254 7.34318C90.1521 7.34978 90.1851 7.35638 90.2119 7.36298L90.2783 7.37618C90.3113 7.38273 90.3447 7.38933 90.3844 7.40253C90.4111 7.40913 90.4441 7.42233 90.4709 7.42893L90.5569 7.45533C90.5836 7.46193 90.6099 7.47513 90.6367 7.48173C90.6634 7.49493 90.6964 7.50813 90.7299 7.52133L90.8756 7.57413C90.9291 7.60048 90.9888 7.62688 91.0486 7.65328C91.1217 7.68628 91.1881 7.71928 91.2541 7.75888C91.3009 7.78528 91.3472 7.81168 91.4003 7.84463C91.427 7.85783 91.4533 7.87103 91.4868 7.89743C91.5264 7.92383 91.5599 7.94363 91.5995 7.97663C91.633 7.99643 91.666 8.02283 91.6927 8.04259C91.7123 8.05579 91.7324 8.06898 91.7591 8.09538C91.8122 8.14158 91.8719 8.18119 91.925 8.22739L91.9646 8.25378C91.978 8.26038 91.9847 8.26694 91.9914 8.28014L92.0114 8.29994C92.0975 8.37254 92.1639 8.43194 92.2303 8.49789C92.3101 8.57709 92.3899 8.65629 92.4826 8.76844C92.4893 8.77504 92.5027 8.78824 92.5094 8.79484L92.5423 8.83444C92.5691 8.86084 92.5892 8.89384 92.6088 8.92679L92.6355 8.96639C92.6752 9.01919 92.7153 9.07199 92.755 9.13799C92.7884 9.17755 92.8147 9.22375 92.8415 9.27655C92.8548 9.28975 92.8615 9.30295 92.8811 9.33595C92.8945 9.34915 92.9012 9.36235 92.9079 9.3821L92.9213 9.4085C92.9475 9.4547 92.9743 9.4943 92.9939 9.5339L93.014 9.5735C93.0273 9.59985 93.0407 9.62625 93.0603 9.67905C93.067 9.69225 93.0737 9.70545 93.0737 9.71205C93.1005 9.76485 93.1267 9.8242 93.1535 9.8902C93.1736 9.9364 93.1932 9.976 93.2065 10.0156L93.2199 10.0552C93.2333 10.0948 93.2467 10.1344 93.2663 10.1806C93.2796 10.2268 93.2997 10.2729 93.3131 10.3191H85.0984Z" fill="white"/>
<path d="M122.16 9.65265C122.093 9.3953 122.02 9.16435 121.941 8.95979C121.861 8.74864 121.775 8.53749 121.668 8.32634L121.629 8.23398H121.622C121.396 7.76548 121.117 7.32998 120.798 6.92747C120.619 6.70972 120.446 6.51172 120.267 6.32697C119.311 5.35701 118.116 4.66414 116.808 4.32761L116.754 4.29462L116.741 4.30782C116.515 4.24843 116.29 4.20224 116.077 4.16925C115.313 4.05707 114.57 4.05707 113.799 4.16925C113.573 4.20884 113.341 4.25503 113.102 4.31441L113.076 4.32101C112.989 4.34081 112.896 4.3672 112.803 4.3936C112.644 4.43979 112.484 4.49917 112.278 4.57176C112.199 4.60475 112.119 4.63775 112.04 4.66414C111.834 4.74992 111.621 4.8489 111.382 4.98085C111.302 5.02705 111.223 5.07325 111.13 5.12605C110.93 5.24481 110.778 5.34381 110.639 5.44276C110.32 5.66711 110.021 5.91786 109.748 6.18182C109.676 6.24782 109.603 6.32037 109.543 6.38637C109.476 6.45237 109.417 6.52492 109.344 6.59752L109.317 6.62392V6.63052C109.284 6.67012 109.25 6.70972 109.224 6.74267L109.138 6.84827V6.85487C109.085 6.92087 109.032 6.98022 108.985 7.05282L108.958 7.07922V7.08582C108.918 7.13202 108.885 7.17818 108.852 7.23098L108.799 7.31678C108.746 7.38933 108.706 7.46193 108.653 7.53453L108.64 7.55433C108.593 7.62688 108.546 7.69948 108.5 7.77868L108.46 7.85123C108.42 7.91063 108.387 7.97003 108.354 8.02943L108.341 8.05578C108.314 8.11518 108.281 8.17458 108.255 8.23398L108.214 8.31974C108.168 8.41874 108.122 8.51769 108.075 8.62329L108.062 8.64309C108.015 8.74864 107.975 8.84764 107.936 8.95319L107.929 8.96639C107.849 9.17095 107.783 9.3953 107.716 9.64605C107.557 10.2466 107.478 10.8668 107.478 11.4937C107.478 12.1205 107.557 12.7408 107.716 13.3413C107.77 13.559 107.843 13.79 107.936 14.0407C108.181 14.7203 108.533 15.3538 108.965 15.9279C109.124 16.1391 109.297 16.3436 109.483 16.5416C109.543 16.6076 109.609 16.667 109.669 16.7329C110.353 17.4126 111.15 17.9471 112.04 18.3298C112.239 18.4156 112.445 18.4881 112.637 18.5475C112.704 18.5739 112.763 18.5937 112.823 18.6069L112.863 18.6201C112.936 18.6399 113.009 18.6663 113.082 18.6795C113.248 18.7257 113.421 18.7653 113.594 18.7983C114.038 18.8775 114.49 18.917 114.942 18.917C115.187 18.917 115.446 18.9038 115.705 18.8775C115.831 18.8643 115.951 18.8511 116.097 18.8313C116.21 18.8115 116.316 18.7917 116.442 18.7719C116.569 18.7455 116.688 18.7191 116.801 18.6861C116.92 18.6597 117.04 18.6267 117.153 18.5937C117.272 18.5541 117.385 18.5145 117.505 18.4749C117.724 18.3958 117.95 18.3034 118.169 18.1978C118.282 18.145 118.388 18.0922 118.488 18.0328C118.674 17.9273 118.859 17.8217 119.039 17.7095L119.105 17.6633C119.145 17.6369 119.185 17.6105 119.218 17.5841C119.357 17.4918 119.49 17.3928 119.61 17.2872L119.736 17.1816C119.856 17.0761 119.982 16.9639 120.101 16.8517C120.154 16.8055 120.207 16.7593 120.254 16.6999C120.307 16.6472 120.367 16.5878 120.413 16.535C120.466 16.4822 120.519 16.4228 120.566 16.3634C120.659 16.2578 120.752 16.1457 120.845 16.0269L120.885 16.0005V15.9609C120.925 15.9081 120.964 15.8553 120.998 15.8025C121.044 15.7432 121.09 15.6772 121.131 15.6178C121.157 15.5848 121.177 15.5518 121.197 15.5188C121.39 15.2219 121.569 14.9117 121.715 14.595H117.857L117.85 14.6016L117.797 14.6412C117.77 14.6676 117.731 14.7005 117.691 14.7335C117.651 14.7731 117.611 14.7995 117.578 14.8259L117.525 14.8655C117.511 14.8721 117.505 14.8787 117.485 14.8919C117.358 14.9843 117.239 15.0635 117.133 15.1295C117.08 15.1559 117.026 15.1889 116.98 15.2153C116.967 15.2219 116.954 15.2285 116.934 15.2417C116.887 15.2681 116.84 15.2945 116.787 15.3143L116.728 15.3407C116.668 15.367 116.608 15.3934 116.562 15.4132C116.542 15.4198 116.522 15.4264 116.515 15.433C116.482 15.4462 116.449 15.4594 116.409 15.4726L116.376 15.4858C116.349 15.499 116.329 15.5056 116.296 15.5122C116.269 15.5188 116.236 15.532 116.19 15.5386C116.157 15.5518 116.123 15.5584 116.07 15.5782L115.878 15.6244C115.792 15.6442 115.698 15.664 115.606 15.6772L115.579 15.6838C115.539 15.6904 115.499 15.697 115.453 15.697C115.426 15.7036 115.4 15.7036 115.366 15.7102C115.16 15.73 114.942 15.7366 114.722 15.73C114.715 15.73 114.703 15.73 114.683 15.7234C114.623 15.7168 114.563 15.7168 114.497 15.7102C114.43 15.7036 114.37 15.697 114.311 15.6904C114.304 15.6838 114.291 15.6838 114.271 15.6838L114.071 15.6442C113.992 15.631 113.912 15.6046 113.832 15.5914L113.779 15.5782C113.739 15.565 113.7 15.5584 113.66 15.5386C113.613 15.5254 113.567 15.5056 113.514 15.4924L113.454 15.4726C113.394 15.4528 113.328 15.4264 113.261 15.3934C113.195 15.367 113.135 15.3407 113.076 15.3077C113.016 15.2813 112.956 15.2483 112.89 15.2153L112.856 15.2021C112.81 15.1757 112.763 15.1493 112.704 15.1097C112.657 15.0833 112.617 15.0569 112.571 15.0239L112.524 14.9909C112.511 14.9777 112.484 14.9645 112.464 14.9447C112.378 14.8853 112.292 14.8193 112.205 14.7467C112.159 14.7071 112.113 14.6676 112.053 14.6214C111.987 14.562 111.927 14.496 111.86 14.43C111.74 14.3112 111.641 14.1925 111.548 14.0671C111.535 14.0539 111.522 14.0407 111.501 14.0077C111.488 13.9945 111.475 13.9813 111.462 13.9615L111.448 13.9351C111.422 13.8955 111.402 13.8691 111.375 13.8295L111.349 13.79C111.302 13.7108 111.256 13.6382 111.21 13.5656C111.123 13.4204 111.043 13.2555 110.97 13.0773C110.964 13.0707 110.964 13.0641 110.964 13.0575H122.213L122.24 12.9058C122.253 12.8332 122.266 12.7606 122.279 12.6946L122.293 12.5956C122.312 12.4702 122.326 12.3383 122.339 12.1997C122.366 11.9754 122.379 11.7246 122.379 11.4739C122.392 10.8734 122.312 10.2532 122.16 9.65265ZM110.831 10.3191C110.838 10.2927 110.844 10.2663 110.851 10.24L110.877 10.1674C110.884 10.141 110.891 10.1146 110.904 10.0882C110.951 9.943 111.017 9.79785 111.096 9.63285C111.11 9.60645 111.123 9.5801 111.136 9.5537C111.143 9.5405 111.15 9.5273 111.156 9.5141L111.196 9.4415C111.203 9.4283 111.21 9.4151 111.216 9.4019L111.242 9.35575C111.256 9.33595 111.269 9.31615 111.283 9.30295L111.296 9.27655C111.302 9.26335 111.309 9.25675 111.309 9.25015C111.336 9.20395 111.362 9.16435 111.402 9.11159C111.442 9.05879 111.475 9.00599 111.522 8.94659C111.542 8.90704 111.568 8.88064 111.601 8.84104C111.614 8.82784 111.621 8.81464 111.648 8.78824C111.694 8.73544 111.734 8.68269 111.787 8.63649C111.893 8.51769 111.987 8.43194 112.073 8.35274C112.166 8.26694 112.278 8.17458 112.385 8.09538C112.445 8.05578 112.504 8.00963 112.564 7.97003C112.67 7.90403 112.79 7.83143 112.916 7.76548L112.943 7.74568C112.982 7.72588 113.022 7.69948 113.069 7.67968L113.095 7.67308L113.115 7.65328C113.222 7.60048 113.335 7.55433 113.454 7.50813L113.48 7.49493C113.547 7.47513 113.607 7.44873 113.673 7.42893C113.706 7.41573 113.739 7.40913 113.779 7.40253C113.826 7.38933 113.872 7.37618 113.926 7.36298C113.972 7.34978 114.018 7.33658 114.078 7.32998C114.158 7.31018 114.238 7.29038 114.337 7.28378C114.39 7.27718 114.45 7.27058 114.503 7.26398C114.576 7.25738 114.642 7.25078 114.722 7.24418C114.855 7.23758 114.988 7.23758 115.154 7.24418L115.18 7.25078C115.247 7.25738 115.307 7.25738 115.373 7.26398C115.552 7.28378 115.698 7.31018 115.858 7.34318C115.884 7.34978 115.918 7.35638 115.944 7.36298L116.01 7.37618C116.044 7.38273 116.077 7.38933 116.117 7.40253C116.143 7.40913 116.177 7.42233 116.203 7.42893L116.29 7.45533C116.316 7.46193 116.343 7.47513 116.369 7.48173C116.396 7.49493 116.429 7.50813 116.462 7.52133L116.608 7.57413C116.661 7.60048 116.721 7.62688 116.781 7.65328C116.854 7.68628 116.92 7.71928 116.987 7.75888C117.033 7.78528 117.08 7.81168 117.133 7.84463C117.159 7.85783 117.186 7.87103 117.219 7.89743C117.259 7.92383 117.292 7.94363 117.332 7.97663C117.365 7.99643 117.399 8.02283 117.425 8.04259C117.445 8.05579 117.465 8.06898 117.491 8.09538C117.544 8.14158 117.604 8.18119 117.658 8.22739L117.697 8.25378C117.711 8.26038 117.717 8.26694 117.724 8.28014L117.744 8.29994C117.83 8.37254 117.897 8.43194 117.963 8.49789C118.043 8.57709 118.122 8.65629 118.215 8.76844C118.222 8.77504 118.235 8.78824 118.242 8.79484L118.275 8.83444C118.302 8.86084 118.321 8.89384 118.341 8.92679L118.368 8.96639C118.408 9.01919 118.447 9.07199 118.488 9.13799C118.521 9.17755 118.547 9.22375 118.574 9.27655C118.587 9.28975 118.594 9.30295 118.614 9.33595C118.627 9.34915 118.634 9.36235 118.64 9.3821L118.653 9.4085C118.68 9.4547 118.706 9.4943 118.727 9.5339L118.747 9.5735C118.76 9.59985 118.773 9.62625 118.793 9.67905C118.8 9.69225 118.806 9.70545 118.806 9.71205C118.833 9.76485 118.859 9.8242 118.886 9.8902C118.906 9.9364 118.926 9.976 118.939 10.0156L118.953 10.0552C118.965 10.0948 118.979 10.1344 118.999 10.1806C119.012 10.2268 119.032 10.2729 119.045 10.3191H110.844H110.831Z" fill="white"/>
<path d="M151 17.0752C151 18.1077 150.15 18.9554 149.111 18.9554C148.072 18.9554 147.222 18.1141 147.222 17.0752C147.222 16.0426 148.072 15.1981 149.111 15.1981C150.15 15.1981 151 16.0362 151 17.0752Z" fill="white"/>
<path d="M3.5705 21.7372C3.63211 21.9147 3.42265 22.0739 3.26863 21.9637C1.94411 21.0149 -1.38877 17.8316 0.638061 10.7061C0.644226 10.7 0.644226 10.7 0.644226 10.6939C1.09395 9.34712 1.75313 8.03099 2.6649 6.80052C5.89923 2.44197 10.0083 0.825873 13.218 0.287176C15.4912 -0.098484 17.3148 0.0545557 18.0663 0.152501C18.3066 0.183109 18.5099 0.323905 18.6208 0.538161C19.5387 2.23384 23.2289 10.2102 16.4646 16.9991C14.4809 18.9947 10.7907 20.317 6.42285 21.1863C6.41052 21.1557 6.40436 21.1312 6.3982 21.1006C6.121 20.2986 4.19888 14.1954 7.37157 10.0756C9.72493 7.02091 12.5341 6.18227 14.4932 5.94965C14.7889 5.91904 14.8998 6.31695 14.6226 6.43939C13.2981 7.01478 11.5053 8.15343 10.0699 10.3633C8.27103 13.1425 8.34495 16.0013 8.63452 17.7153C10.8955 17.0848 13.1933 16.1972 14.407 14.979C16.8281 12.5426 17.8631 9.65933 17.475 6.39654C17.4688 6.38429 17.4688 6.37205 17.4688 6.35981C17.4688 6.34756 17.4688 6.33532 17.4626 6.32307C17.2901 4.94568 16.8897 3.75199 16.5508 2.92558C16.4215 2.92558 16.286 2.91945 16.1442 2.91945C15.7007 2.91945 15.1955 2.93782 14.6411 2.99904C14.598 3.00516 14.561 3.00516 14.5117 3.01128C14.1914 3.04189 13.8402 3.08474 13.489 3.14595C10.8893 3.58671 7.56873 4.89059 4.95662 8.41661C3.47809 10.4123 2.83123 12.6834 2.67106 14.9116C2.56633 15.989 2.60945 17.0603 2.73266 18.0397C2.73266 18.0397 2.97292 19.9742 3.5705 21.7372Z" fill="#00C7CF"/>
</g>
<defs>
<clipPath id="clip0_165_149">
<rect width="151" height="22" fill="white"/>
</clipPath>
</defs>
</svg>
