<svg width="48" height="42" viewBox="0 0 48 42" fill="none" xmlns="http://www.w3.org/2000/svg">
    <path d="M47.012 3.56713C46.7707 2.18631 45.5643 1.15069 44.1165 0.805484H43.9959C40.6178 0.34521 37.4811 0 34.4649 0C31.5695 0 28.7946 0.230137 26.2611 0.805484C19.8669 2.07124 14.1966 5.06302 10.0947 9.32054C5.14825 14.6137 -0.763345 24.2795 0.0811669 42C0.925685 42 7.80244 42 8.40564 42C6.59596 28.7672 10.9392 19.5617 16.0063 14.3836C19.0224 11.2767 23.1243 8.97538 27.9501 7.93973C30.1217 7.47949 32.5346 7.24933 35.0681 7.24933C36.7572 7.24933 38.4462 7.36441 40.1352 7.59449C40.6178 10.5863 40.7384 13.6931 40.4971 16.4548C40.1352 20.3672 38.9288 23.9343 37.1191 26.6959C35.1888 29.6877 32.4139 31.989 29.1566 33.2548C26.8643 34.1754 24.0895 34.7507 20.9527 34.7507C20.5908 31.2986 21.194 27.6164 22.6418 24.3945C23.6069 22.2082 25.0546 20.4822 26.623 19.1014C28.3121 17.7205 30.4837 16.8 32.8965 16.5699C33.8617 16.4548 34.4649 15.7644 34.4649 14.8438C34.4649 13.9233 33.6204 13.1178 32.6552 13.1178H32.5346C29.5185 13.1178 26.3817 14.0384 23.8482 15.5343C21.4353 17.0301 19.143 19.2164 17.5746 21.863C15.5237 25.3151 13.1108 31.7589 14.4379 41.5398C31.0869 41.5398 38.9288 37.3973 43.3926 30.2631C45.8056 26.4658 47.3739 21.9781 47.8565 16.9151C47.9771 15.7644 47.9771 14.4986 47.9771 13.2329C48.0978 10.126 47.7359 6.90409 47.012 3.56713Z"
          fill="#00C7CF"/>
</svg>
