<svg width="30" height="24" viewBox="0 0 30 24" fill="none" xmlns="http://www.w3.org/2000/svg">
<path d="M29.3135 2.96661C28.2421 3.44167 27.0897 3.76298 25.8811 3.90648C27.1151 3.16715 28.0621 1.99733 28.5091 0.60113C27.3544 1.28609 26.075 1.78298 24.7144 2.05081C23.6244 0.889908 22.0713 0.164398 20.3515 0.164398C17.052 0.164398 14.3759 2.84049 14.3759 6.14005C14.3759 6.60842 14.4289 7.06431 14.5314 7.50194C9.56516 7.25282 5.16174 4.87397 2.21425 1.25756C1.69998 2.13994 1.40496 3.16715 1.40496 4.2621C1.40496 6.33479 2.46069 8.16461 4.06323 9.23594C3.08415 9.20519 2.16211 8.93647 1.35683 8.4877C1.35638 8.51311 1.35638 8.53851 1.35638 8.56346C1.35638 11.4588 3.41705 13.8738 6.15018 14.4224C5.64928 14.5596 5.1203 14.6322 4.57617 14.6322C4.19024 14.6322 3.81634 14.5953 3.45181 14.5257C4.21208 16.8992 6.41846 18.627 9.03395 18.6756C6.98844 20.2786 4.41217 21.2336 1.61174 21.2336C1.13044 21.2336 0.653602 21.2055 0.187012 21.1498C2.83013 22.8459 5.97193 23.8348 9.34635 23.8348C20.3377 23.8348 26.3486 14.7294 26.3486 6.83213C26.3486 6.57321 26.3428 6.31519 26.3312 6.05939C27.4997 5.21712 28.5126 4.16495 29.3135 2.96661Z" fill="white"/>
</svg>
